<svg width="120" height="23" viewBox="0 0 120 23" fill="none" xmlns="http://www.w3.org/2000/svg">
<path d="M5.13278 22.14C4.68478 22.14 4.17145 22.0933 3.59278 22C3.01411 21.9253 2.45411 21.7387 1.91278 21.44C1.39011 21.1413 0.951448 20.6933 0.596781 20.096C0.260781 19.48 0.0927813 18.64 0.0927813 17.576V6.012C0.0927813 5.09733 0.232781 4.332 0.512781 3.716C0.792781 3.1 1.16611 2.61467 1.63278 2.26C2.09945 1.90533 2.61278 1.65333 3.17278 1.504C3.73278 1.35467 4.28345 1.28 4.82478 1.28C6.22478 1.28 7.45678 1.29867 8.52078 1.336C9.60345 1.37333 10.5741 1.42 11.4328 1.476C12.2914 1.51333 13.0754 1.56933 13.7848 1.644V5.116H6.05678C5.47811 5.116 5.03011 5.256 4.71278 5.536C4.39545 5.816 4.23678 6.24533 4.23678 6.824V9.82L12.4408 10.044V13.32L4.23678 13.544V16.4C4.23678 16.8853 4.31145 17.268 4.46078 17.548C4.62878 17.8093 4.84345 17.996 5.10478 18.108C5.38478 18.2013 5.67412 18.248 5.97278 18.248H13.7848V21.72C12.9634 21.8133 12.0488 21.888 11.0408 21.944C10.0514 22 9.04345 22.0467 8.01678 22.084C7.00878 22.1213 6.04745 22.14 5.13278 22.14ZM21.5318 22.168C20.3558 22.168 19.3665 21.9253 18.5638 21.44C17.7611 20.936 17.1545 20.1333 16.7438 19.032C16.3518 17.912 16.1558 16.4467 16.1558 14.636C16.1558 12.7693 16.3238 11.2573 16.6598 10.1C17.0145 8.94267 17.6025 8.09333 18.4238 7.552C19.2451 7.01067 20.3745 6.74 21.8118 6.74C22.5025 6.74 23.1838 6.81467 23.8558 6.964C24.5278 7.09467 25.1251 7.25333 25.6478 7.44V0.636H29.8198V22H26.3198L25.6478 20.572C25.3305 20.8707 24.9385 21.1413 24.4718 21.384C24.0238 21.6267 23.5478 21.8227 23.0438 21.972C22.5398 22.1027 22.0358 22.168 21.5318 22.168ZM22.9878 18.836C23.5478 18.836 24.0518 18.7427 24.4998 18.556C24.9665 18.3693 25.3491 18.1827 25.6478 17.996V10.436C25.2745 10.3053 24.8825 10.1747 24.4718 10.044C24.0611 9.91333 23.6225 9.848 23.1558 9.848C22.4651 9.848 21.9051 9.96933 21.4758 10.212C21.0651 10.4547 20.7665 10.912 20.5798 11.584C20.3931 12.2373 20.2998 13.1893 20.2998 14.44C20.2998 15.5973 20.3838 16.5027 20.5518 17.156C20.7385 17.7907 21.0278 18.2293 21.4198 18.472C21.8118 18.7147 22.3345 18.836 22.9878 18.836ZM37.184 22.168C35.84 22.168 34.7854 21.776 34.02 20.992C33.2547 20.1893 32.872 19.06 32.872 17.604V6.964H37.016V16.372C37.016 17.212 37.212 17.7813 37.604 18.08C38.0147 18.36 38.5467 18.5 39.2 18.5C39.7227 18.5 40.2547 18.4067 40.796 18.22C41.356 18.0147 41.8507 17.744 42.28 17.408V6.964H46.452V22H43.008L42.28 20.46C41.608 20.908 40.8334 21.3093 39.956 21.664C39.0787 22 38.1547 22.168 37.184 22.168ZM49.7764 22V1.28H58.5124C59.1844 1.28 59.8657 1.364 60.5564 1.532C61.2657 1.68133 61.9097 1.99867 62.4884 2.484C63.0857 2.95067 63.5617 3.66 63.9164 4.612C64.2897 5.564 64.4764 6.824 64.4764 8.392C64.4764 9.96 64.2897 11.2293 63.9164 12.2C63.5617 13.1707 63.095 13.908 62.5164 14.412C61.9377 14.916 61.3124 15.252 60.6404 15.42C59.9684 15.588 59.315 15.672 58.6804 15.672C58.3444 15.672 57.9524 15.6627 57.5044 15.644C57.0564 15.6067 56.599 15.56 56.1324 15.504C55.6844 15.448 55.2644 15.4013 54.8724 15.364C54.4804 15.308 54.163 15.2613 53.9204 15.224V22H49.7764ZM53.9204 11.948H58.0364C58.5217 11.948 58.9324 11.836 59.2684 11.612C59.623 11.3693 59.8844 10.996 60.0524 10.492C60.2204 9.96933 60.3044 9.27867 60.3044 8.42C60.3044 7.58 60.211 6.91733 60.0244 6.432C59.8564 5.928 59.6044 5.564 59.2684 5.34C58.951 5.116 58.5684 5.004 58.1204 5.004H53.9204V11.948ZM66.971 22V6.964H70.163L71.115 9.26C71.6563 8.56933 72.263 7.98133 72.935 7.496C73.6257 7.01067 74.4377 6.768 75.371 6.768C75.5763 6.768 75.7817 6.77733 75.987 6.796C76.211 6.81467 76.4163 6.852 76.603 6.908V11.164C76.323 11.1267 76.0243 11.0987 75.707 11.08C75.4083 11.0427 75.119 11.024 74.839 11.024C74.2977 11.024 73.803 11.0893 73.355 11.22C72.9257 11.332 72.5243 11.5093 72.151 11.752C71.7963 11.976 71.451 12.2747 71.115 12.648V22H66.971ZM85.1388 22.14C83.4775 22.14 82.1522 21.9253 81.1628 21.496C80.1735 21.048 79.4548 20.264 79.0068 19.144C78.5775 18.024 78.3628 16.4747 78.3628 14.496C78.3628 12.4613 78.5682 10.884 78.9788 9.764C79.3895 8.644 80.0802 7.86 81.0508 7.412C82.0215 6.964 83.3375 6.74 84.9988 6.74C86.4922 6.74 87.6868 6.88933 88.5828 7.188C89.4788 7.48667 90.1228 8.00933 90.5148 8.756C90.9255 9.50267 91.1308 10.5573 91.1308 11.92C91.1308 12.928 90.9255 13.7307 90.5148 14.328C90.1228 14.9067 89.5628 15.3267 88.8348 15.588C88.1068 15.8307 87.2482 15.952 86.2588 15.952H82.4788C82.5162 16.7173 82.6282 17.3333 82.8148 17.8C83.0202 18.248 83.3842 18.5747 83.9068 18.78C84.4482 18.9667 85.2228 19.06 86.2308 19.06H90.6268V21.496C89.8988 21.6453 89.0962 21.7947 88.2188 21.944C87.3602 22.0747 86.3335 22.14 85.1388 22.14ZM82.4228 13.488H85.8388C86.3988 13.488 86.8095 13.376 87.0708 13.152C87.3322 12.928 87.4628 12.5267 87.4628 11.948C87.4628 11.4067 87.3788 10.9773 87.2108 10.66C87.0428 10.324 86.7815 10.0907 86.4268 9.96C86.0722 9.81067 85.5962 9.736 84.9988 9.736C84.3642 9.736 83.8602 9.848 83.4868 10.072C83.1135 10.2773 82.8428 10.6507 82.6748 11.192C82.5068 11.7333 82.4228 12.4987 82.4228 13.488ZM99.3099 22.168C98.8432 22.168 98.3392 22.1493 97.7979 22.112C97.2566 22.0933 96.7152 22.056 96.1739 22C95.6326 21.944 95.1286 21.8787 94.6619 21.804C94.1952 21.7107 93.8032 21.608 93.4859 21.496V19.06H100.15C100.542 19.06 100.859 19.032 101.102 18.976C101.363 18.9013 101.55 18.78 101.662 18.612C101.793 18.4253 101.858 18.164 101.858 17.828V17.352C101.858 16.9787 101.737 16.6893 101.494 16.484C101.251 16.2787 100.803 16.176 100.15 16.176H97.7979C96.9392 16.176 96.1646 16.0453 95.4739 15.784C94.7832 15.5227 94.2326 15.0933 93.8219 14.496C93.4299 13.8987 93.2339 13.096 93.2339 12.088V11.22C93.2339 10.268 93.4206 9.46533 93.7939 8.812C94.1672 8.15867 94.7926 7.664 95.6699 7.328C96.5472 6.992 97.7512 6.824 99.2819 6.824C99.8979 6.824 100.551 6.86133 101.242 6.936C101.951 6.992 102.614 7.076 103.23 7.188C103.865 7.28133 104.369 7.39333 104.742 7.524V9.96H98.4419C97.9006 9.96 97.4899 10.0533 97.2099 10.24C96.9299 10.408 96.7899 10.7347 96.7899 11.22V11.668C96.7899 12.004 96.8552 12.256 96.9859 12.424C97.1166 12.5733 97.3126 12.6853 97.5739 12.76C97.8539 12.816 98.1992 12.844 98.6099 12.844H101.018C102.549 12.844 103.659 13.1987 104.35 13.908C105.059 14.5987 105.414 15.56 105.414 16.792V18.136C105.414 19.144 105.171 19.9467 104.686 20.544C104.219 21.1227 103.529 21.5427 102.614 21.804C101.718 22.0467 100.617 22.168 99.3099 22.168ZM113.447 22.168C112.98 22.168 112.476 22.1493 111.935 22.112C111.393 22.0933 110.852 22.056 110.311 22C109.769 21.944 109.265 21.8787 108.799 21.804C108.332 21.7107 107.94 21.608 107.623 21.496V19.06H114.287C114.679 19.06 114.996 19.032 115.239 18.976C115.5 18.9013 115.687 18.78 115.799 18.612C115.929 18.4253 115.995 18.164 115.995 17.828V17.352C115.995 16.9787 115.873 16.6893 115.631 16.484C115.388 16.2787 114.94 16.176 114.287 16.176H111.935C111.076 16.176 110.301 16.0453 109.611 15.784C108.92 15.5227 108.369 15.0933 107.959 14.496C107.567 13.8987 107.371 13.096 107.371 12.088V11.22C107.371 10.268 107.557 9.46533 107.931 8.812C108.304 8.15867 108.929 7.664 109.807 7.328C110.684 6.992 111.888 6.824 113.419 6.824C114.035 6.824 114.688 6.86133 115.379 6.936C116.088 6.992 116.751 7.076 117.367 7.188C118.001 7.28133 118.505 7.39333 118.879 7.524V9.96H112.579C112.037 9.96 111.627 10.0533 111.347 10.24C111.067 10.408 110.927 10.7347 110.927 11.22V11.668C110.927 12.004 110.992 12.256 111.123 12.424C111.253 12.5733 111.449 12.6853 111.711 12.76C111.991 12.816 112.336 12.844 112.747 12.844H115.155C116.685 12.844 117.796 13.1987 118.487 13.908C119.196 14.5987 119.551 15.56 119.551 16.792V18.136C119.551 19.144 119.308 19.9467 118.823 20.544C118.356 21.1227 117.665 21.5427 116.751 21.804C115.855 22.0467 114.753 22.168 113.447 22.168Z" fill="black"/>
</svg>
